<?xml version="1.0" encoding="UTF-8" standalone="no"?>
<!DOCTYPE svg PUBLIC "-//W3C//DTD SVG 1.1//EN" "http://www.w3.org/Graphics/SVG/1.1/DTD/svg11.dtd">
<svg width="100%" height="100%" viewBox="0 0 3508 2481" version="1.1" xmlns="http://www.w3.org/2000/svg" xmlns:xlink="http://www.w3.org/1999/xlink" xml:space="preserve" xmlns:serif="http://www.serif.com/" style="fill-rule:evenodd;clip-rule:evenodd;stroke-linecap:round;stroke-linejoin:round;stroke-miterlimit:1.5;">
    <path d="M1778.46,659.323C1709.1,841.724 1609.67,1211.47 1243.5,1422.77C1117.87,1495.27 975.654,1532.3 889.68,1532.3C738.962,1532.3 556.598,1470.99 466.683,1394.16C363.868,1306.31 210.917,1163.22 200.509,732.059L91.624,732.351L92.048,1488.92C137.843,1491.08 247.257,1510.03 425.252,1610.95C440.9,1619.82 615.466,1735.16 886.893,1735.16C1064.03,1735.16 1239.26,1672.37 1357.77,1619.56C1423.04,1590.48 1650.11,1493.4 1846.59,1484.28C1935.29,1480.16 2039.71,1496.39 2133.63,1517.8C2182.66,1528.97 3335.25,1823.55 3335.25,1823.55L3420.38,1532.51L1778.46,659.323Z" style="fill:none;stroke:black;stroke-width:4.17px;stroke-dasharray:16.67,8.33,16.67,8.33,16.67,8.33;"/>
</svg>
